<svg width="298" height="321" viewBox="0 0 298 321" fill="none" xmlns="http://www.w3.org/2000/svg">
<path d="M187.113 83.0464C201.399 79.3106 216.08 76.9999 229.792 80.4087C244.121 83.971 255.966 93.3816 265.168 109.973C274.169 126.201 280.845 149.603 285.409 182.185C291.973 229.047 296.276 255.071 297.291 270.72C297.806 278.675 297.581 285.083 295.885 290.742C294.105 296.684 290.973 300.906 287.454 304.838C286.084 306.369 284.607 307.675 283.143 308.791L276.13 314.133C259.506 326.799 235.47 321.318 225.98 302.698L211.037 273.375C208.655 268.701 210.513 262.98 215.187 260.597C219.861 258.215 225.583 260.073 227.965 264.748L242.909 294.071C247.016 302.13 257.42 304.502 264.616 299.02L271.628 293.677C272.314 293.155 272.864 292.649 273.296 292.167C275.972 289.177 277.051 287.404 277.685 285.288C278.404 282.887 278.799 279.171 278.331 271.949C277.377 257.241 273.297 232.685 266.592 184.821C262.156 153.153 255.896 132.429 248.552 119.189C241.411 106.313 233.505 100.91 225.208 98.8472C216.296 96.6317 205.477 97.883 191.92 101.428C185.24 103.175 178.21 105.386 170.688 107.797C163.237 110.185 155.303 112.769 147.139 115.129C132.591 119.335 124.781 125.2 120.568 131.14C116.374 137.053 114.86 144.286 115.378 153.024C115.905 161.893 118.485 171.61 121.805 181.792C124.936 191.391 129.101 202.395 131.645 211.427C134.961 223.199 138.934 228.786 141.697 231.268C143.041 232.476 144.091 232.948 144.718 233.137C145.355 233.329 145.716 233.278 145.785 233.265C145.897 233.244 146.131 233.187 146.741 232.999C147.2 232.857 148.195 232.534 149.135 232.292C189.668 221.866 209.479 210.539 218.246 201.814C222.517 197.563 223.734 194.368 224.017 192.578C224.254 191.079 223.93 190.06 223.516 189.384C216.655 181.682 205.905 170.879 195.556 162.941C190.241 158.864 185.484 155.896 181.715 154.359C179.303 153.375 178.112 153.297 177.71 153.301C177.095 153.851 175.776 155.451 174.291 159.205C172.672 163.296 171.352 168.667 170.35 174.768C168.351 186.934 167.84 200.56 168 209.331C168.095 214.576 163.919 218.906 158.673 219.001C153.428 219.096 149.098 214.922 149.002 209.676C148.829 200.113 149.367 185.288 151.601 171.688C152.715 164.906 154.309 158.064 156.624 152.214C158.812 146.683 162.253 140.449 168.037 136.904L168.373 136.703C175.443 132.581 183.396 134.526 188.89 136.766C194.945 139.235 201.258 143.369 207.121 147.866C218.202 156.366 229.307 167.443 236.688 175.612L238.114 177.206L238.401 177.531L238.658 177.88C242.054 182.505 243.868 188.677 242.785 195.54C241.715 202.315 237.962 208.998 231.648 215.282C219.243 227.628 195.419 240.006 153.87 250.694C153.506 250.787 153.195 250.89 152.347 251.152C151.649 251.367 150.569 251.695 149.359 251.926C142.976 253.148 135.556 251.292 129 245.403C122.617 239.669 117.236 230.349 113.357 216.579C110.901 207.861 107.363 198.788 103.742 187.683C100.31 177.16 97.0875 165.543 96.4116 154.149C95.728 142.623 97.613 130.661 105.07 120.148C112.508 109.661 124.603 101.866 141.863 96.8765C149.698 94.6115 157.312 92.1329 164.888 89.7046C172.393 87.2993 179.872 84.9398 187.113 83.0464ZM70.6821 186.325C75.1982 185.044 79.8982 187.667 81.1792 192.183C82.4599 196.699 79.8369 201.399 75.3208 202.68L41.8208 212.18C37.3046 213.461 32.6046 210.838 31.3237 206.322C30.0432 201.806 32.6661 197.106 37.1821 195.825L70.6821 186.325ZM0.813965 114.72C2.81659 110.475 7.88174 108.656 12.1274 110.659L66.4565 136.286C70.7019 138.288 72.5212 143.353 70.519 147.598C68.5164 151.844 63.4503 153.662 59.2046 151.66L4.87646 126.034C0.630828 124.031 -1.18838 118.966 0.813965 114.72ZM63.2788 63.396C66.4767 59.9596 71.8549 59.7667 75.2915 62.9644L98.394 84.4614C101.831 87.6594 102.024 93.0385 98.8257 96.4751C95.6278 99.9112 90.2505 100.104 86.814 96.9067L63.7114 75.4087C60.2749 72.2107 60.081 66.8326 63.2788 63.396ZM117.862 0.422363C122.324 -1.03521 127.123 1.40157 128.581 5.86377L147.867 64.9028C149.324 69.3652 146.888 74.165 142.425 75.6226C137.963 77.0799 133.164 74.6432 131.707 70.1812L112.421 11.1421C110.964 6.67986 113.4 1.88004 117.862 0.422363ZM189.409 15.0034C194.103 14.9522 197.95 18.7158 198.001 23.4097L198.375 57.4438C198.426 62.1377 194.662 65.985 189.968 66.0366C185.274 66.088 181.427 62.3243 181.375 57.6304L181.002 23.5962C180.951 18.9022 184.715 15.0549 189.409 15.0034Z" fill="#5D45FD"/>
</svg>
